<svg width="1726" height="378" viewBox="0 0 1726 378" fill="none" xmlns="http://www.w3.org/2000/svg">
<circle cx="189" cy="189" r="189" fill="url(#paint0_linear_101_37)"/>
<path d="M67.2737 185.02L52.2763 189.155L67.2737 193.29C124.515 209.069 169.24 253.794 185.019 311.035L189.154 326.033L193.289 311.035C209.069 253.794 253.793 209.069 311.035 193.29L326.032 189.155L311.035 185.02C253.793 169.24 209.069 124.516 193.289 67.2741L189.154 52.2767L185.019 67.2741C169.24 124.516 124.515 169.24 67.2737 185.02Z" fill="#F5FBFF"/>
<path d="M668.903 243.566C668.903 291.513 635.922 323 554.546 323C465.283 323 428 285.072 428 219.593H495.395C495.395 255.374 509.376 268.613 555.98 268.613C587.885 268.613 601.866 262.172 601.866 246.429C601.866 237.483 594.696 230.685 580.357 227.107L495.754 204.923C452.019 193.115 438.396 167.71 438.396 135.865C438.396 86.8451 474.962 60.725 541.282 60.725C620.149 60.725 659.224 97.9372 659.224 152.682H592.187C592.187 125.489 576.772 114.039 542.357 114.039C518.339 114.039 505.792 120.121 505.792 134.434C505.792 141.59 509.735 147.673 525.508 151.967L607.602 172.362C649.544 182.738 668.903 206.712 668.903 243.566Z" fill="#F5FBFF"/>
<path d="M850.549 263.961V317.991H753.041C732.965 317.991 721.852 306.899 721.852 286.503V190.968H678.117V136.939H721.852V104.736L783.153 85.4139V136.939H843.379V190.968H783.153V264.319L850.549 263.961Z" fill="#F5FBFF"/>
<path d="M948.315 321.569C901.353 321.569 872.674 290.439 872.674 233.19V136.939H934.334V223.171C934.334 255.732 943.296 267.539 970.541 267.539C1000.3 267.539 1020.37 253.585 1020.37 202.418V136.939H1081.67V317.991H1020.37V297.595L1031.84 263.603H1016.79C1009.62 295.806 987.031 321.569 948.315 321.569Z" fill="#F5FBFF"/>
<path d="M1188.46 321.569C1135.4 321.569 1110.31 277.916 1110.31 227.107C1110.31 176.656 1135.4 133.36 1188.46 133.36C1233.62 133.36 1249.76 156.26 1259.08 179.518H1274.49L1262.66 145.526V55H1323.96V317.991H1262.66V309.403L1274.49 275.053H1259.08C1249.76 298.669 1233.62 321.569 1188.46 321.569ZM1171.61 227.107C1171.61 255.374 1187.38 267.539 1217.49 267.539C1247.61 267.539 1262.66 255.732 1262.66 227.107C1262.66 199.198 1247.61 187.39 1217.49 187.39C1187.38 187.39 1171.61 199.198 1171.61 227.107Z" fill="#F5FBFF"/>
<path d="M1350.88 317.991V263.961H1401.79V190.968H1357.33V136.939H1427.24C1446.95 136.939 1458.43 146.957 1458.43 166.995V263.961H1509.69V317.991H1350.88ZM1389.96 90.4232C1389.96 69.6702 1403.94 59.6515 1425.8 59.6515C1447.67 59.6515 1462.73 69.6702 1462.73 90.4232C1462.73 111.534 1447.67 121.195 1425.8 121.195C1403.94 121.195 1389.96 111.534 1389.96 90.4232Z" fill="#F5FBFF"/>
<path d="M1519.87 227.107C1519.87 163.059 1566.12 133.36 1623.11 133.36C1679.4 133.36 1726 163.059 1726 227.107C1726 291.87 1679.4 321.569 1623.11 321.569C1566.12 321.569 1519.87 291.87 1519.87 227.107ZM1581.17 227.107C1581.17 254.3 1598.02 267.539 1623.11 267.539C1647.49 267.539 1664.34 254.3 1664.34 227.107C1664.34 200.271 1647.49 187.39 1623.11 187.39C1598.02 187.39 1581.17 200.271 1581.17 227.107Z" fill="#F5FBFF"/>
<defs>
<linearGradient id="paint0_linear_101_37" x1="189" y1="-99.5" x2="189" y2="547" gradientUnits="userSpaceOnUse">
<stop offset="0.1" stop-color="#0A4DD3"/>
<stop offset="0.85" stop-color="#7493D1"/>
</linearGradient>
</defs>
</svg>
