<svg width="1726" height="378" viewBox="0 0 1726 378" fill="none" xmlns="http://www.w3.org/2000/svg">
<circle cx="189" cy="189" r="189" fill="url(#paint0_linear_101_42)"/>
<path d="M67.2737 185.02L52.2763 189.155L67.2737 193.29C124.515 209.07 169.24 253.794 185.019 311.036L189.154 326.033L193.289 311.036C209.069 253.794 253.793 209.07 311.035 193.29L326.032 189.155L311.035 185.02C253.793 169.241 209.069 124.516 193.289 67.2746L189.154 52.2772L185.019 67.2746C169.24 124.516 124.515 169.241 67.2737 185.02Z" fill="#F5FBFF"/>
<path d="M668.903 243.567C668.903 291.513 635.922 323 554.546 323C465.283 323 428 285.073 428 219.593H495.395C495.395 255.374 509.376 268.613 555.98 268.613C587.885 268.613 601.866 262.173 601.866 246.429C601.866 237.484 594.696 230.685 580.357 227.107L495.754 204.923C452.019 193.115 438.396 167.711 438.396 135.866C438.396 86.8456 474.962 60.7254 541.282 60.7254C620.149 60.7254 659.224 97.9377 659.224 152.683H592.187C592.187 125.489 576.772 114.039 542.357 114.039C518.339 114.039 505.792 120.122 505.792 134.434C505.792 141.591 509.735 147.673 525.508 151.967L607.602 172.362C649.544 182.739 668.903 206.712 668.903 243.567Z" fill="#080A13"/>
<path d="M850.549 263.962V317.991H753.041C732.965 317.991 721.852 306.899 721.852 286.504V190.968H678.117V136.939H721.852V104.736L783.153 85.4144V136.939H843.379V190.968H783.153V264.32L850.549 263.962Z" fill="#080A13"/>
<path d="M948.315 321.569C901.353 321.569 872.674 290.44 872.674 233.19V136.939H934.334V223.171C934.334 255.732 943.296 267.54 970.541 267.54C1000.3 267.54 1020.37 253.585 1020.37 202.418V136.939H1081.67V317.991H1020.37V297.596L1031.84 263.604H1016.79C1009.62 295.807 987.031 321.569 948.315 321.569Z" fill="#080A13"/>
<path d="M1188.46 321.569C1135.4 321.569 1110.31 277.916 1110.31 227.107C1110.31 176.656 1135.4 133.361 1188.46 133.361C1233.62 133.361 1249.76 156.261 1259.08 179.519H1274.49L1262.66 145.527V55.0005H1323.96V317.991H1262.66V309.404L1274.49 275.054H1259.08C1249.76 298.669 1233.62 321.569 1188.46 321.569ZM1171.61 227.107C1171.61 255.374 1187.38 267.54 1217.49 267.54C1247.61 267.54 1262.66 255.732 1262.66 227.107C1262.66 199.198 1247.61 187.39 1217.49 187.39C1187.38 187.39 1171.61 199.198 1171.61 227.107Z" fill="#080A13"/>
<path d="M1350.88 317.991V263.962H1401.79V190.968H1357.33V136.939H1427.24C1446.95 136.939 1458.43 146.958 1458.43 166.995V263.962H1509.69V317.991H1350.88ZM1389.96 90.4237C1389.96 69.6707 1403.94 59.652 1425.8 59.652C1447.67 59.652 1462.73 69.6707 1462.73 90.4237C1462.73 111.535 1447.67 121.195 1425.8 121.195C1403.94 121.195 1389.96 111.535 1389.96 90.4237Z" fill="#080A13"/>
<path d="M1519.87 227.107C1519.87 163.059 1566.12 133.361 1623.11 133.361C1679.4 133.361 1726 163.059 1726 227.107C1726 291.871 1679.4 321.569 1623.11 321.569C1566.12 321.569 1519.87 291.871 1519.87 227.107ZM1581.17 227.107C1581.17 254.301 1598.02 267.54 1623.11 267.54C1647.49 267.54 1664.34 254.301 1664.34 227.107C1664.34 200.272 1647.49 187.39 1623.11 187.39C1598.02 187.39 1581.17 200.272 1581.17 227.107Z" fill="#080A13"/>
<defs>
<linearGradient id="paint0_linear_101_42" x1="189" y1="-99.5" x2="189" y2="547" gradientUnits="userSpaceOnUse">
<stop offset="0.1" stop-color="#0A4DD3"/>
<stop offset="0.85" stop-color="#7493D1"/>
</linearGradient>
</defs>
</svg>
